<?xml version="1.0" encoding="utf-8"?><svg version="1.1" id="Layer_1" xmlns="http://www.w3.org/2000/svg" xmlns:xlink="http://www.w3.org/1999/xlink" x="0px" y="0px" viewBox="0 0 122.88 116.26" style="enable-background:new 0 0 122.88 116.26" xml:space="preserve"><style type="text/css">.st0{fill-rule:evenodd;clip-rule:evenodd;}</style><g><path class="st0" d="M61.48,33.29c7.07,0,13.63,2.23,18.99,6.03c-0.03,0.04-0.06,0.08-0.09,0.12c-0.73,1.02-1.53,1.97-2.39,2.85 c-0.86,0.87-1.75,1.64-2.68,2.33c-0.26,0.17-0.49,0.38-0.7,0.63c-0.04,0.05-0.09,0.11-0.12,0.16c-3.77-2.36-8.23-3.73-13.01-3.73 c-4.74,0-9.17,1.35-12.92,3.67c-0.19-0.27-0.43-0.51-0.71-0.72c-1.02-0.75-1.95-1.56-2.8-2.43c-0.86-0.88-1.65-1.83-2.36-2.84l0,0 c-0.03-0.04-0.06-0.08-0.09-0.12C47.94,35.49,54.45,33.29,61.48,33.29L61.48,33.29z M94.23,62.73c0.12,1.15,0.18,2.31,0.18,3.49 c0,13.18-7.74,24.55-18.93,29.81c-0.03-0.06-0.05-0.12-0.08-0.18c-0.55-1.11-1-2.26-1.36-3.44c-0.36-1.17-0.62-2.38-0.79-3.62l0,0 c-0.03-0.23-0.09-0.46-0.17-0.69c-0.03-0.07-0.05-0.13-0.08-0.2c7.76-4.13,13.04-12.29,13.04-21.69c0-0.47-0.01-0.94-0.04-1.41 c0.29-0.04,0.59-0.11,0.88-0.24c1.09-0.47,2.27-0.87,3.51-1.19c1.2-0.31,2.38-0.51,3.52-0.62C94.01,62.76,94.12,62.75,94.23,62.73 L94.23,62.73z M47.98,96.27C36.52,91.11,28.55,79.6,28.55,66.22c0-1.32,0.08-2.62,0.23-3.9c0.1,0.02,0.19,0.03,0.29,0.04 c1.24,0.1,2.46,0.29,3.64,0.57c1.15,0.28,2.32,0.66,3.51,1.16l0-0.01c0.19,0.08,0.38,0.14,0.58,0.18c0.07,0.01,0.13,0.02,0.2,0.03 c-0.05,0.63-0.07,1.27-0.07,1.92c0,9.62,5.53,17.94,13.59,21.97c-0.1,0.25-0.18,0.51-0.22,0.79c-0.17,1.2-0.45,2.4-0.82,3.6 c-0.36,1.14-0.8,2.25-1.31,3.3C48.09,96,48.03,96.13,47.98,96.27L47.98,96.27z"/><path class="st0" d="M114.81,103.94c-10.55,12.61-28.94,16.2-43.67,7.7c-3.9-2.25-7.2-5.15-9.83-8.49 c-10.48,12.99-29.15,16.78-44.06,8.17c-2.74-1.58-5.19-3.49-7.31-5.64c1.23,1.06,2.58,2.02,4.04,2.87 c12.67,7.32,28.88,2.97,36.2-9.7c4.57-7.91,4.59-17.21,0.88-24.85l4.81-2.98c1.45,1.61,3.55,2.62,5.89,2.62 c2.17,0,4.14-0.87,5.57-2.29l0.44,0.26l4.81,2.44c-6.1,12.28-1.67,27.36,10.37,34.31C93.55,114.47,106.65,112.33,114.81,103.94 L114.81,103.94z M69.13,68.62c0.36-0.9,0.56-1.89,0.56-2.92c0-3.96-2.9-7.23-6.68-7.83v-5.59c8.56-0.48,16.73-5.13,21.34-13.11 c7.26-12.58,2.95-28.67-9.63-35.93c-2.79-1.61-5.75-2.65-8.76-3.16c16.94,2.19,30.03,16.67,30.03,34.2c0,4.73-0.95,9.24-2.68,13.35 c4.22,0.61,8.4,2.01,12.32,4.27c13.65,7.88,19.88,23.69,16.22,38.25c1.83-10.51-2.93-21.52-12.71-27.16 c-12.06-6.96-27.36-3.24-34.94,8.23l-1.82-0.93l0,0L69.13,68.62L69.13,68.62z M54.23,68.22l-4.77,2.95 c-2.21-3.4-5.23-6.35-8.98-8.52c-12.67-7.32-28.88-2.97-36.2,9.7c-3.25,5.62-4.2,11.94-3.14,17.87 c-2.23-8.48-1.25-17.81,3.49-26.01c5.5-9.52,14.84-15.43,24.93-16.89c-1.64-4.02-2.55-8.43-2.55-13.04 c0-17.74,13.4-32.36,30.63-34.27C50,1.16,42.94,5.65,38.78,12.86c-7.26,12.58-2.95,28.67,9.63,35.93c3.59,2.08,7.48,3.2,11.35,3.47 v5.77c-3.41,0.88-5.94,3.99-5.94,7.68C53.82,66.58,53.97,67.43,54.23,68.22L54.23,68.22z"/></g></svg>