<?xml version="1.0" encoding="utf-8"?><svg version="1.1" id="Layer_1" xmlns="http://www.w3.org/2000/svg" xmlns:xlink="http://www.w3.org/1999/xlink" x="0px" y="0px" viewBox="0 0 122.88 122.88" style="enable-background:new 0 0 122.88 122.88" xml:space="preserve"><style type="text/css">.st0{fill-rule:evenodd;clip-rule:evenodd;}</style><g><path class="st0" d="M56.73,71.74c-2.03,1.17-4.66,0.47-5.83-1.56L47,63.44c0,10.93,0.14,20.96,0.14,31.9c0,2.69-2.2,4.9-4.9,4.9 c-2.69,0-4.9-2.2-4.9-4.9V73.25h-2.75v22.09c0,2.69-2.2,4.9-4.9,4.9c-2.69,0-4.9-2.2-4.9-4.9c0-10.89,0.13-20.86,0.13-31.74 l-3.8,6.58c-1.17,2.03-3.8,2.74-5.83,1.56c-2.03-1.17-2.74-3.8-1.56-5.83l9.93-17.2c3.54-6.14,20.72-6.89,24.54-0.27l10.09,17.47 C59.46,67.95,58.76,70.57,56.73,71.74L56.73,71.74L56.73,71.74z M97.19,21.62v16.67c0,0.66-0.27,1.26-0.7,1.7 c-0.43,0.43-1.04,0.7-1.7,0.7c-0.66,0-1.26-0.27-1.7-0.7c-0.43-0.43-0.7-1.03-0.7-1.7V21.62l-8.53,7.45 c-0.49,0.43-1.12,0.62-1.72,0.59c-0.61-0.04-1.21-0.3-1.65-0.8c-0.44-0.49-0.63-1.12-0.6-1.72c0.04-0.61,0.31-1.2,0.8-1.64 l12.53-10.94c0.46-0.41,1.04-0.6,1.61-0.6c0.57,0,1.14,0.22,1.58,0.62l12.52,10.93c0.48,0.44,0.74,1.02,0.78,1.62 c0.03,0.61-0.16,1.23-0.6,1.72l-0.02,0.02c-0.44,0.48-1.03,0.75-1.63,0.78h-0.01c-0.61,0.03-1.23-0.17-1.72-0.6L97.19,21.62 L97.19,21.62L97.19,21.62z M94.79,53.5c4.38,0,7.94,3.55,7.94,7.94c0,4.38-3.55,7.94-7.94,7.94c-4.38,0-7.94-3.55-7.94-7.94 C86.86,57.06,90.41,53.5,94.79,53.5L94.79,53.5z M97.19,101.26V84.59c0-0.66-0.27-1.26-0.7-1.7c-0.43-0.43-1.04-0.7-1.7-0.7 c-0.66,0-1.26,0.27-1.7,0.7c-0.43,0.43-0.7,1.03-0.7,1.7v16.67l-8.53-7.45c-0.49-0.43-1.12-0.62-1.72-0.59 c-0.61,0.04-1.21,0.3-1.65,0.8c-0.44,0.49-0.63,1.12-0.6,1.72c0.04,0.61,0.31,1.2,0.8,1.64l12.53,10.94 c0.46,0.41,1.04,0.6,1.61,0.6c0.57,0,1.14-0.22,1.58-0.62l12.52-10.93c0.48-0.44,0.74-1.02,0.78-1.62c0.03-0.61-0.16-1.23-0.6-1.72 l-0.02-0.02c-0.44-0.48-1.03-0.75-1.63-0.78h-0.01c-0.61-0.03-1.23,0.17-1.72,0.6L97.19,101.26L97.19,101.26L97.19,101.26z M19.2,0 h50.89h33.59c5.28,0,10.09,2.16,13.56,5.64c3.48,3.48,5.64,8.28,5.64,13.56v84.48c0,5.28-2.16,10.09-5.64,13.56 c-3.48,3.48-8.28,5.64-13.56,5.64H70.09H19.2c-5.28,0-10.09-2.16-13.56-5.64C2.16,113.76,0,108.96,0,103.68V19.2 C0,13.92,2.16,9.12,5.64,5.64C9.12,2.16,13.92,0,19.2,0L19.2,0z M66.71,116.11V6.77H19.2c-3.42,0-6.52,1.4-8.78,3.65 c-2.25,2.25-3.66,5.36-3.66,8.78v84.48c0,3.42,1.4,6.52,3.66,8.78c2.25,2.25,5.36,3.66,8.78,3.66H66.71L66.71,116.11z M36.01,22.64 c5.4,0,9.77,4.37,9.77,9.77s-4.37,9.77-9.77,9.77c-5.4,0-9.77-4.37-9.77-9.77S30.62,22.64,36.01,22.64L36.01,22.64z"/></g></svg>