<svg id="Layer_1" data-name="Layer 1" xmlns="http://www.w3.org/2000/svg" viewBox="0 0 108.01 122.88"><defs><style>.cls-1{fill-rule:evenodd;}</style></defs><title>emergency-exit</title><path class="cls-1" d="M.5,0H15a.51.51,0,0,1,.5.5V83.38L35.16,82h.22l.24,0c2.07-.14,3.65-.26,4.73-1.23l1.86-2.17a1.12,1.12,0,0,1,1.49-.18l9.35,6.28a1.15,1.15,0,0,1,.49,1c0,.55-.19.7-.61,1.08A11.28,11.28,0,0,0,51.78,88a27.27,27.27,0,0,1-3,3.1,15.84,15.84,0,0,1-3.68,2.45c-2.8,1.36-5.45,1.54-8.59,1.76l-.24,0-.21,0L15.5,96.77v25.61a.52.52,0,0,1-.5.5H.5a.51.51,0,0,1-.5-.5V.5A.5.5,0,0,1,.5,0ZM46,59.91l9-19.12-.89-.25a12.43,12.43,0,0,0-4.77-.82c-1.9.28-3.68,1.42-5.67,2.7-.83.53-1.69,1.09-2.62,1.63-.7.33-1.51.86-2.19,1.25l-8.7,5a1.11,1.11,0,0,1-1.51-.42l-5.48-9.64a1.1,1.1,0,0,1,.42-1.51c3.43-2,7.42-4,10.75-6.14,4-2.49,7.27-4.48,11.06-5.42s8-.8,13.89,1c2.12.59,4.55,1.48,6.55,2.2,1,.35,1.8.66,2.44.87,9.86,3.29,13.19,9.66,15.78,14.6,1.12,2.13,2.09,4,3.34,5,.51.42,1.67.27,3,.09a21.62,21.62,0,0,1,2.64-.23c4.32-.41,8.66-.66,13-1a1.1,1.1,0,0,1,1.18,1L108,61.86A1.11,1.11,0,0,1,107,63L95,63.9c-5.33.38-9.19.66-15-2.47l-.12-.07a23.23,23.23,0,0,1-7.21-8.5l0,0L65.73,68.4a63.9,63.9,0,0,0,5.85,5.32c6,5,11,9.21,9.38,20.43a23.89,23.89,0,0,1-.65,2.93c-.27,1-.56,1.9-.87,2.84-2.29,6.54-4.22,13.5-6.29,20.13a1.1,1.1,0,0,1-1,.81l-11.66.78a1,1,0,0,1-.39,0,1.12,1.12,0,0,1-.75-1.38c2.45-8.12,5-16.25,7.39-24.38a29,29,0,0,0,.87-3,7,7,0,0,0,.08-2.65l0-.24a4.16,4.16,0,0,0-.73-2.22,53.23,53.23,0,0,0-8.76-5.57c-3.75-2.07-7.41-4.08-10.25-7a12.15,12.15,0,0,1-3.59-7.36A14.76,14.76,0,0,1,46,59.91ZM80.07,6.13a12.29,12.29,0,0,1,13.1,11.39v0a12.29,12.29,0,0,1-24.52,1.72v0A12.3,12.3,0,0,1,80,6.13ZM3.34,35H6.69V51.09H3.34V35Z"/></svg>