<?xml version="1.0" encoding="utf-8"?><svg version="1.1" id="Layer_1" xmlns="http://www.w3.org/2000/svg" xmlns:xlink="http://www.w3.org/1999/xlink" x="0px" y="0px" viewBox="0 0 89.87 122.88" style="enable-background:new 0 0 89.87 122.88" xml:space="preserve"><style type="text/css">.st0{fill-rule:evenodd;clip-rule:evenodd;}</style><g><path class="st0" d="M33.1,16.49c2.42,0,4.39,1.96,4.39,4.39s-1.96,4.39-4.39,4.39c-2.42,0-4.39-1.96-4.39-4.39 S30.68,16.49,33.1,16.49L33.1,16.49z M77.28,89.79h7.97l-1.04-21.79c-0.07-1.43-0.76-2.33-1.64-2.74c-0.39-0.18-0.84-0.27-1.3-0.27 c-0.46,0-0.91,0.09-1.3,0.27c-0.88,0.4-1.57,1.31-1.64,2.74L77.28,89.79L77.28,89.79z M26.78,78.79c-0.81,0-1.47-0.66-1.47-1.47 c0-0.81,0.66-1.47,1.47-1.47h12.65c0.81,0,1.47,0.66,1.47,1.47c0,0.81-0.66,1.47-1.47,1.47H26.78L26.78,78.79z M26.78,87.35 c-0.81,0-1.47-0.66-1.47-1.47c0-0.81,0.66-1.47,1.47-1.47h12.65c0.81,0,1.47,0.66,1.47,1.47c0,0.81-0.66,1.47-1.47,1.47H26.78 L26.78,87.35z M30.67,70.22c-0.81,0-1.47-0.66-1.47-1.47s0.66-1.47,1.47-1.47h4.85c0.81,0,1.47,0.66,1.47,1.47 s-0.66,1.47-1.47,1.47H30.67L30.67,70.22z M26.78,95.92c-0.81,0-1.47-0.66-1.47-1.47c0-0.81,0.66-1.47,1.47-1.47h12.65 c0.81,0,1.47,0.66,1.47,1.47c0,0.81-0.66,1.47-1.47,1.47H26.78L26.78,95.92z M41.65,35.27c3.93,1.64,7.31,4.37,9.74,7.81 c2.59,3.66,4.11,8.1,4.11,12.88v62.2c0,1.29-0.53,2.47-1.39,3.33l0,0l0,0l0,0c-0.86,0.85-2.03,1.38-3.32,1.38H15.42 c-1.29,0-2.47-0.53-3.33-1.38l0,0l0,0l0,0c-0.85-0.86-1.38-2.03-1.38-3.32v-62.2c0-4.78,1.52-9.23,4.11-12.88 c2.43-3.44,5.81-6.17,9.74-7.81V26.9c0-0.04,0-0.09,0.01-0.13c-0.08-0.12-0.16-0.24-0.24-0.37H4.78c-2.29,0-3.75-1.16-4.4-2.65 C0.12,23.17-0.01,22.53,0,21.89c0.01-0.63,0.14-1.27,0.4-1.85c0.67-1.5,2.13-2.67,4.32-2.67c0.04,0,0.08,0,0.11,0 c3.35,0.13,6.53,0.24,9.72,0.34c1.43,0.05,2.85,0.09,4.28,0.14L4.09,8.61C4.03,8.58,3.97,8.54,3.91,8.5 C2.12,7.18,1.41,5.63,1.43,4.22c0.01-0.78,0.24-1.5,0.64-2.11c0.38-0.59,0.92-1.09,1.56-1.46c1.34-0.76,3.15-0.93,4.93-0.1 C8.6,0.57,8.65,0.6,8.7,0.63l19.61,11.04c1.43-0.75,3.06-1.17,4.79-1.17c2.87,0,5.46,1.16,7.34,3.04c0.74,0.74,1.37,1.59,1.86,2.53 h4.05c1.38,0,2.63,0.56,3.54,1.47c0.31,0.31,0.59,0.67,0.81,1.05l0.02,0c3.47-0.03,6.78,0.36,9.89,1.24 c3.16,0.89,6.12,2.26,8.85,4.19c4.47,3.15,7.94,7.16,10.3,11.74c2.39,4.64,3.64,9.83,3.64,15.26v9.73c0.36,0.1,0.71,0.24,1.06,0.39 c2.32,1.06,4.14,3.29,4.3,6.67l1.09,22.82c0.01,0.09,0.02,0.17,0.02,0.26c0,0.96-0.4,1.82-1.04,2.46c-0.6,0.6-1.43,0.98-2.33,1.02 c-0.15,0.01-0.14,0.01-0.17,0.01H76.21c-0.03,0-0.02,0-0.17-0.01c-0.9-0.04-1.73-0.43-2.33-1.02c-0.64-0.63-1.04-1.5-1.04-2.46 c0-0.04,0-0.01,0.01-0.13l0-0.03l1.1-22.92c0.16-3.38,1.98-5.61,4.3-6.67c0.25-0.11,0.5-0.21,0.75-0.3v-9.82 c0-4.71-1.07-9.19-3.13-13.17c-2.03-3.92-5.01-7.38-8.87-10.09c-2.3-1.62-4.8-2.78-7.46-3.53c-2.66-0.75-5.49-1.09-8.46-1.08 c-0.25,0.55-0.6,1.05-1.02,1.47c-0.91,0.91-2.16,1.47-3.54,1.47h-4.27c-0.14,0.24-0.29,0.48-0.45,0.7c0,0.04,0,0.08,0,0.12h0.01 V35.27L41.65,35.27z M48.73,44.95c-2.25-3.18-5.45-5.65-9.18-7c-0.68-0.2-1.18-0.83-1.18-1.57v-5.88c-1.55,0.87-3.34,1.3-5.13,1.29 c-1.88,0-3.78-0.48-5.43-1.4v5.99h0c0,0.67-0.42,1.3-1.09,1.54c-3.76,1.34-6.99,3.82-9.26,7.03c-2.2,3.11-3.5,6.91-3.5,11v62.2 c0,0.4,0.16,0.76,0.42,1.02l0.01,0.01c0.26,0.26,0.62,0.42,1.02,0.42h35.36c0.4,0,0.76-0.16,1.02-0.42l0.01-0.01 c0.26-0.26,0.42-0.62,0.42-1.02v-62.2C52.23,51.86,50.93,48.06,48.73,44.95L48.73,44.95z M21.42,60.23h23.37 c0.58,0,1.1,0.24,1.48,0.62l0.01,0.01c0.38,0.38,0.62,0.91,0.62,1.48v39.22c0,0.58-0.24,1.11-0.62,1.49 c-0.05,0.05-0.09,0.09-0.14,0.13c-0.37,0.31-0.83,0.49-1.34,0.49H21.42c-0.58,0-1.11-0.24-1.49-0.62c-0.05-0.05-0.09-0.1-0.13-0.15 c-0.3-0.37-0.49-0.83-0.49-1.34V62.34c0-0.58,0.24-1.1,0.62-1.48l0.01-0.01C20.31,60.47,20.84,60.23,21.42,60.23L21.42,60.23z M43.95,63.17h-21.7v37.55h21.7V63.17L43.95,63.17z M25.72,13.57L7.29,3.2c-0.84-0.39-1.65-0.33-2.22,0 C4.84,3.33,4.66,3.5,4.53,3.69C4.42,3.86,4.36,4.06,4.36,4.26C4.35,4.79,4.72,5.45,5.64,6.14l17.73,11.11 C23.89,15.86,24.7,14.61,25.72,13.57L25.72,13.57z M22.72,20.92c-2.82-0.11-5.54-0.19-8.26-0.28c-3.25-0.11-6.51-0.21-9.74-0.34h0 c-0.86,0.01-1.41,0.41-1.64,0.93c-0.1,0.21-0.15,0.45-0.15,0.68c0,0.22,0.04,0.45,0.13,0.66c0.22,0.5,0.78,0.89,1.71,0.89h18.27 C22.84,22.65,22.73,21.8,22.72,20.92L22.72,20.92z M43.31,19c0.11,0.61,0.17,1.23,0.17,1.87c0,0.78-0.09,1.53-0.25,2.26h3.12 c0.57,0,1.08-0.23,1.46-0.61c0.38-0.38,0.61-0.89,0.61-1.46l0,0c0-0.57-0.23-1.08-0.61-1.46C47.44,19.23,46.92,19,46.35,19H43.31 L43.31,19z M38.36,15.61c-1.35-1.35-3.21-2.18-5.26-2.18c-2.05,0-3.91,0.83-5.26,2.18c-1.35,1.35-2.18,3.21-2.18,5.26 s0.83,3.91,2.18,5.26c1.35,1.35,3.21,2.18,5.26,2.18c2.05,0,3.91-0.83,5.26-2.18c0.56-0.56,1.02-1.2,1.38-1.91 c0.04-0.16,0.12-0.32,0.21-0.45c0.38-0.89,0.59-1.87,0.59-2.9c0-0.92-0.17-1.81-0.48-2.63c-0.06-0.1-0.1-0.22-0.14-0.33 C39.55,17.04,39.02,16.27,38.36,15.61L38.36,15.61z M77.23,90.92l0,0.01l0,0.02C77.23,90.96,77.23,90.94,77.23,90.92L77.23,90.92 L77.23,90.92z"/></g></svg>