<svg id="Layer_1" data-name="Layer 1" xmlns="http://www.w3.org/2000/svg" viewBox="0 0 95.46 122.88"><defs><style>.cls-1{fill-rule:evenodd;}</style></defs><title>disclaimer</title><path class="cls-1" d="M43.29,74.15,72,117.58c1.56,2.4,2,5.3-.85,5.3l-61.57,0c-2.46-.46-2-2.82-.45-5.23L37.86,74.15c1.81-2.64,3.62-2.61,5.43,0ZM16.11,23.61V21.78A11,11,0,0,1,30.38,11.31a10.63,10.63,0,0,1,2.11.92V11A11,11,0,0,1,47.62.84a11.09,11.09,0,0,1,6,6A10.82,10.82,0,0,1,54.4,11v1.3a11.4,11.4,0,0,1,2.06-.88,11,11,0,0,1,14.2,10.49V68.51c.06.43.11.86.14,1.29s.06.9.06,1.35v1.63c1.1-1,2.12-2.07,2.83-2.77l.68-.67A16.67,16.67,0,0,1,81,65.11a11.43,11.43,0,0,1,7-.09,10.84,10.84,0,0,1,2.51,1.17A10.54,10.54,0,0,1,92.55,68a11.84,11.84,0,0,1,1.59,2.29,11.1,11.1,0,0,1,1,2.6,12.17,12.17,0,0,1-.87,8.24,24.18,24.18,0,0,1-5,6.57l0,0c-1.2,1.2-2.8,2.92-4.67,4.92-2.86,3.07-6.35,6.81-10,10.5l-3.28-5c3.81-3.85,7.4-7.71,10.1-10.62,1.6-1.73,2.9-3.12,3.74-4l.08-.09a2.08,2.08,0,0,1,.21-.2.6.6,0,0,1,.38-.13l-.06-.07,0,0c.19-.16.44-.4.72-.69,1.43-1.51,3.82-4.69,3-8.13A5.86,5.86,0,0,0,88.92,73a5,5,0,0,0-.72-1.06l0,0a4.58,4.58,0,0,0-.92-.78,4.44,4.44,0,0,0-1.1-.52,5.7,5.7,0,0,0-3.71.18,11.16,11.16,0,0,0-4,2.69c-.68.67-2.5,2.5-4.33,4.21-.91.86-1.84,1.7-2.69,2.4a16.56,16.56,0,0,1-1.94,1.41,3.2,3.2,0,0,1-.77.36,2.92,2.92,0,0,1-.83.12.55.55,0,0,1-.29-.08L65.79,81a.57.57,0,0,1-.31-.47l-.56-9.36c0-9.24,0-14.8-.06-23.18,0-8.93-.06-17.86-.06-26.08a5.06,5.06,0,0,0-.39-1.95,5.12,5.12,0,0,0-4.73-3.16,5.06,5.06,0,0,0-2,.38,5.13,5.13,0,0,0-3.17,4.73V55.83a.56.56,0,0,1-.56.56H49.11a.56.56,0,0,1-.56-.55V11A5.07,5.07,0,0,0,47,7.37,5.12,5.12,0,0,0,38.31,11V55.84a.55.55,0,0,1-.56.55h-5a.55.55,0,0,1-.56-.55V21.78a5.05,5.05,0,0,0-1.49-3.61A5.12,5.12,0,0,0,22,21.78V55.84a.55.55,0,0,1-.56.55H16.65a.55.55,0,0,1-.56-.55V33.31a5.12,5.12,0,1,0-10.23,0V70.68c-.25,6.5,0,13.45,0,20a23.82,23.82,0,0,0,1.76,9c.16.4.34.8.52,1.19L4.5,106.36a29,29,0,0,1-2.3-4.47A29.46,29.46,0,0,1,0,90.69V33.31a11,11,0,0,1,16.11-9.7ZM85.77,83.15l.13,0c.08,0-.11-.05-.19-.1l.06.07ZM38.43,110.44a3,3,0,0,1,1.91-.87,3.06,3.06,0,0,1,1.31.2,3.24,3.24,0,0,1,1.11.71,3.06,3.06,0,0,1,.89,2,2.88,2.88,0,0,1,0,.77,2.66,2.66,0,0,1-.23.74,3,3,0,0,1-1.6,1.56,3.2,3.2,0,0,1-1.26.23,3.09,3.09,0,0,1-1.24-.29,3.05,3.05,0,0,1-1.55-1.61,3.13,3.13,0,0,1-.19-.7,2.86,2.86,0,0,1,.27-1.83,2.63,2.63,0,0,1,.63-.86Zm4.47-5.62a2,2,0,0,1-1.49,1.85,2.78,2.78,0,0,1-1.68,0,2,2,0,0,1-1.49-1.85c-.45-4.5-1.6-11.57-1.56-15.81,0-1.3,1.12-2.07,2.5-2.37a7,7,0,0,1,2.74,0c1.43.3,2.55,1.1,2.55,2.43v.13L42.9,104.82Z"/></svg>