<svg id="Layer_1" data-name="Layer 1" xmlns="http://www.w3.org/2000/svg" viewBox="0 0 122.88 91.89"><defs><style>.cls-1{fill-rule:evenodd;}</style></defs><title>ambulance-vehicle</title><path class="cls-1" d="M46.82,34.74c-13.7.1-20.43-.88-24.49,10.31a28.59,28.59,0,0,0-1.81,7.82C0,60.94,3.26,55.93,0,78.59H5.65c2.61-20.35,28.26-17.89,29.05,0H71.44A15.44,15.44,0,0,1,97.7,69.34l0,0a15.47,15.47,0,0,1,4.43,9.23h15.26a5.28,5.28,0,0,0,5.27-5.27v-12H46.82V34.74ZM64.59,6h.67a6,6,0,0,1,6,6v4.2H58.57v-4.2a6,6,0,0,1,6-6Zm-3.12,8.81H60.24V14c0-1.7,0-3.15,1.39-4.64a5.05,5.05,0,0,1,1.41-1,11.55,11.55,0,0,0-1.57,6.52ZM66.32,3.22a1.4,1.4,0,0,1-2.79,0V1.4a1.4,1.4,0,1,1,2.79,0V3.22ZM55.75,8a1.39,1.39,0,0,1-1.38,2.41l-1.58-.91a1.39,1.39,0,0,1,1.38-2.41L55.75,8Zm19.73,2.34A1.39,1.39,0,1,1,74.1,8L75.67,7a1.39,1.39,0,1,1,1.39,2.41l-1.58.91ZM59.87,3.92a1.38,1.38,0,0,1-2.4,1.38l-.92-1.58A1.39,1.39,0,0,1,59,2.34l.91,1.58ZM72.38,5.3A1.38,1.38,0,1,1,70,3.92l.91-1.58A1.39,1.39,0,0,1,73.3,3.72L72.38,5.3ZM49.08,59.2h73.8V20.86a3.6,3.6,0,0,0-3.57-3.56H52.65a3.63,3.63,0,0,0-3.57,3.56V59.2ZM82.91,24.39h6A2.06,2.06,0,0,1,91,26.44v6.83h6.83a2.05,2.05,0,0,1,2,2v6a2.05,2.05,0,0,1-2,2H91v6.66a2.07,2.07,0,0,1-2.06,2h-6a2.06,2.06,0,0,1-2-2V43.41H74a2.06,2.06,0,0,1-2.06-2v-6a2.06,2.06,0,0,1,2.06-2h6.83V26.44a2.05,2.05,0,0,1,2-2.05Zm3.88,44.25A11.63,11.63,0,1,1,75.17,80.26,11.63,11.63,0,0,1,86.79,68.64Zm0,7.15a4.47,4.47,0,1,1-4.47,4.47,4.47,4.47,0,0,1,4.47-4.47ZM20.17,67.61A11.63,11.63,0,1,1,8.55,79.23,11.63,11.63,0,0,1,20.17,67.61Zm0,7.15a4.47,4.47,0,1,1-4.47,4.47,4.48,4.48,0,0,1,4.47-4.47Zm13.27-33.9L40,40.75V52.87H27.85c.6-3.95,2.17-8.62,5.59-12Z"/></svg>