<svg id="Layer_1" data-name="Layer 1" xmlns="http://www.w3.org/2000/svg" viewBox="0 0 122.88 112.92"><title>headset</title><path d="M15.31,87.55a20.54,20.54,0,0,0,1.23,4.65,12.43,12.43,0,0,0,2.75,4.26c3.88,3.85,8.92,3.84,14.44,3.84v0h2.62c2.27-3.27,7.6-5.56,13.8-5.56,8.27,0,15,4.07,15,9.1s-6.71,9.1-15,9.1c-6.07,0-11.3-2.2-13.65-5.36H33.73c-7.08,0-13.55,0-19.55-5.94A19.78,19.78,0,0,1,9.8,94.93,28.6,28.6,0,0,1,8,87.55a8.2,8.2,0,0,1-8-8.18V49.87a8.2,8.2,0,0,1,8.18-8.18h.58c1.48-15.15,11-27,23.87-34.09A61.85,61.85,0,0,1,57.37.2,58.06,58.06,0,0,1,83.32,3.87c14.45,5.71,26.56,17.84,31.25,37.82h.13a8.2,8.2,0,0,1,8.18,8.18v29.5a8.2,8.2,0,0,1-8.18,8.18h-8.18V42.41C102.33,26,92.29,16,80.38,11.32A50,50,0,0,0,58,8.18a53.66,53.66,0,0,0-21.49,6.39C25.37,20.75,17.24,31,16.58,44.05a4,4,0,0,1-.22,1.15V87.55Z"/></svg>