<?xml version="1.0" encoding="utf-8"?><svg version="1.1" id="Layer_1" xmlns="http://www.w3.org/2000/svg" xmlns:xlink="http://www.w3.org/1999/xlink" x="0px" y="0px" viewBox="0 0 122.88 99.87" style="enable-background:new 0 0 122.88 99.87" xml:space="preserve"><style type="text/css">.st0{fill-rule:evenodd;clip-rule:evenodd;}</style><g><path class="st0" d="M3.73,18.67h31.73V4.04c0-2.22,1.82-4.04,4.05-4.04h42.62c2.22,0,4.04,1.82,4.04,4.04v14.62h32.98 c2.05,0,3.73,1.68,3.73,3.73v73.74c0,2.05-1.68,3.73-3.73,3.73l-115.42,0C1.68,99.87,0,98.19,0,96.14V22.4 C0,20.34,1.68,18.66,3.73,18.67L3.73,18.67L3.73,18.67z M43.55,18.67h34.53v-7.16c0-2.22-1.82-4.04-4.04-4.04H47.6 c-2.22,0-4.04,1.82-4.04,4.04V18.67L43.55,18.67z M69.25,35.26v16.19h16.19v15.63l-16.19,0v16.19H53.62V67.08H37.43V51.45l16.19,0 V35.26H69.25L69.25,35.26z"/></g></svg>