<svg id="Layer_1" data-name="Layer 1" xmlns="http://www.w3.org/2000/svg" viewBox="0 0 103.12 122.88"><defs><style>.cls-1{fill-rule:evenodd;}</style></defs><title>stair-climbing</title><path class="cls-1" d="M72.23,54.4H101a2.16,2.16,0,0,1,2.15,2.15v66.33H1.25V101.74c0-1.09.44-1.66,1.43-1.67H34.75V79.56a2.16,2.16,0,0,1,2.16-2.21H48.4c-.07-2.44-.1-5.23-.37-7.32a6.12,6.12,0,0,0-.66-2.19l-.1-.18c-.41-.77-.79-1.48-1.31-1.68a45.39,45.39,0,0,0-4.47-1.35c-2.1-.54-4.45-1.07-6.51-1.51-2.47,10.69-6.32,24.59-10.67,34.54a.63.63,0,0,1-.57.37l-9.47.68a.64.64,0,0,1-.67-.59,1,1,0,0,1,0-.24h0c4.2-12.64,7.95-26.19,10.95-39.18a16.28,16.28,0,0,1-2.65-3.63,8.41,8.41,0,0,1-1-5L23,33.84h-.19a6.57,6.57,0,0,0-3.11.59A12.57,12.57,0,0,0,16,38.11c-.48.62-1,1.27-1.57,2l0,0c-.43.51-.88,1-1.31,1.53L7.76,47.79a.62.62,0,0,1-.88.06L.2,41.7a.63.63,0,0,1,0-.88L5.5,34.67l1.24-1.44.06-.07c2.39-3,4.34-5.38,6.93-7.08s5.84-2.69,10.73-2.8h0c1.75-.09,3.81,0,5.52,0,.79,0,1.5,0,2.1,0,8.26,0,12.4,4.08,15.61,7.24a13.85,13.85,0,0,0,3.92,3.12c.6.24,1.49-.21,2.5-.72a15.76,15.76,0,0,1,2-.87l.88-.4.5-.23L64.73,28h0a3.94,3.94,0,0,1,3.23.27A5.35,5.35,0,0,1,70,30a5,5,0,0,1,.94,2.67,6.7,6.7,0,0,1-2,4.86.55.55,0,0,1-.23.17l-7.3,3.46h0l-.68.3c-3.92,1.68-6.76,2.9-11.93,2a.2.2,0,0,1-.11,0,18.31,18.31,0,0,1-7.55-4.71l-.28-.25L39.52,51.61a53,53,0,0,0,6.19,2.72c6,2.34,10.94,4.26,12.57,13.35a75.94,75.94,0,0,1,.45,9.67h10.7V57.57c-.05-1,.64-3.17,2.8-3.17ZM31.27.76A9.89,9.89,0,1,1,31.32,19,9.89,9.89,0,0,1,31.27.76Z"/></svg>